<svg width="14" height="14" viewBox="0 0 14 14" fill="none" xmlns="http://www.w3.org/2000/svg">
<path fill-rule="evenodd" clip-rule="evenodd" d="M5.58568 4.17157C6.36673 4.95262 7.63306 4.95262 8.41411 4.17157L11.9496 0.63604C12.3402 0.245516 12.9733 0.245516 13.3639 0.63604C13.7544 1.02656 13.7544 1.65973 13.3639 2.05025L9.82832 5.58579C9.04728 6.36684 9.04728 7.63316 9.82832 8.41421L13.3639 11.9497C13.7544 12.3403 13.7544 12.9734 13.3639 13.364C12.9733 13.7545 12.3402 13.7545 11.9496 13.364L8.41411 9.82843C7.63306 9.04738 6.36673 9.04738 5.58568 9.82843L2.05015 13.364C1.65962 13.7545 1.02646 13.7545 0.635935 13.364C0.24541 12.9734 0.24541 12.3403 0.635935 11.9497L4.17147 8.41421C4.95252 7.63316 4.95252 6.36684 4.17147 5.58579L0.635935 2.05025C0.24541 1.65973 0.24541 1.02656 0.635935 0.63604C1.02646 0.245516 1.65962 0.245516 2.05015 0.63604L5.58568 4.17157Z" fill="white"/>
</svg>
